<svg xmlns="http://www.w3.org/2000/svg" xmlns:xlink="http://www.w3.org/1999/xlink" version="1.1" class="" pagealignment="no-margins" x="0px" y="0px" width="330px" height="330px" enable-background="new 0 0 842 595" xml:space="preserve" bodybackgroundcolor="rgba(255,255,255,0)"><defs></defs><g type="LAYER" name="Layer 01" id="Layer 01"><path transform="matrix(1 0 0 1 12.421098315538558 8.25582737739194)" width="207.92198879715545" height="212.98581858438945" stroke-miterlimit="3" stroke="#C9FFCB" stroke-opacity="0" fill="#4DA57B" d="M0,106.49290929219472 C0,47.67849418233682 46.544917399358106,0 103.96099439857772,0 C161.37707139779735,0 207.92198879715545,47.67849418233682 207.92198879715545,106.49290929219472 C207.92198879715545,165.30732440205264 161.37707139779735,212.98581858438945 103.96099439857772,212.98581858438945 C46.544917399358106,212.98581858438945 0,165.30732440205264 0,106.49290929219472 Z "></path><path transform="matrix(1 0 0 1 -243.76567096011408 -137.18669887426324)" width="117.18716492518945" height="57.8035224496123" stroke-width="1.0832711339616625" stroke-miterlimit="3" stroke="#FFFFFF" stroke-opacity="0" fill="#FFFFFF" d="M301.69062634025045,248.86783504327224 Q362.96905356598904,192.95686129716046 418.8777912654399,249.28142521777164 C390.2513727074307,285.0644484152833 339.26280069763766,292.2547506702551 301.69062634025045,249.31512283324116 "></path><path transform="matrix(1 0 0 1 96.48505965311358 92.34286543765069)" width="39.602621574170854" height="40.15713320042478" stroke-width="1.2904395343424082" stroke-miterlimit="3" stroke="#FFFFFF" stroke-opacity="0" fill="#6EBEC4" d="M-5.684341886080802e-14,20.078566600212383 C-5.684341886080802e-14,8.989479461127416 8.86534781930203,0 19.801310787085328,0 C30.737273754868653,0 39.6026215741708,8.989479461127416 39.6026215741708,20.078566600212383 C39.6026215741708,31.167653739297364 30.737273754868653,40.15713320042478 19.801310787085328,40.15713320042478 C8.86534781930203,40.15713320042478 -5.684341886080802e-14,31.167653739297364 -5.684341886080802e-14,20.078566600212383 Z "></path><path transform="matrix(1 0 0 1 102.54193118798645 98.41847106973725)" width="27.488878504424548" height="27.87377480970666" stroke-width="0.8957168532494382" stroke-miterlimit="3" stroke="#FFFFFF" stroke-opacity="0" fill="#000000" d="M-8.526512829121202e-14,13.936887404853351 C-8.526512829121202e-14,6.239756331841406 6.153594368691955,0 13.744439252212146,0 C21.335284135732365,0 27.488878504424463,6.239756331841406 27.488878504424463,13.936887404853351 C27.488878504424463,21.634018477865297 21.335284135732365,27.87377480970666 13.744439252212146,27.87377480970666 C6.153594368691955,27.87377480970666 -8.526512829121202e-14,21.634018477865297 -8.526512829121202e-14,13.936887404853351 Z "></path><path transform="matrix(1 0 0 1 108.59880272285915 104.81593969426046)" width="8.38065973339502" height="7.6688711587228795" stroke-width="1.2904395343424082" stroke-miterlimit="3" stroke="#FFFFFF" stroke-opacity="0" fill="#7B807F" fill-opacity="0.7133333333333334" d="M0,3.8344355793614397 C0,1.7167350923009228 1.8760743743344492,0 4.19032986669751,0 C6.504585359060572,0 8.38065973339502,1.7167350923009228 8.38065973339502,3.8344355793614397 C8.38065973339502,5.952136066421957 6.504585359060572,7.6688711587228795 4.19032986669751,7.6688711587228795 C1.8760743743344492,7.6688711587228795 0,5.952136066421957 0,3.8344355793614397 Z "></path><path transform="matrix(1 0 0 1 -267.28627148866053 -166.7866334089233)" width="161.38098754234375" height="163.30851063829783" stroke-width="1.0000000000000002" stroke-miterlimit="3" stroke="#FFFFFF" stroke-opacity="0" fill="#4DA57B" d="M411.50531914893645,336.74468085106395 Q533.1564902538172,462.90562631770774 546.962765957447,476.0000000000001 Q561.1816719731896,461.25708621656815 572.8863066912802,448.56332743779365 Q566.6218543069501,442.62858307369123 436.82446808510645,312.6914893617022 L411.50531914893645,336.74468085106395 "></path><path transform="matrix(1 0 0 1 273.6183572405078 276.83717767496415)" width="38.08127633632411" height="37.37627016748809" stroke-width="1.0832711339616625" stroke-miterlimit="3" stroke="#FFFFFF" stroke-opacity="0" fill="#4DA57B" d="M0,18.68813508374412 C0,8.366962136645558 8.52478312558631,7.460698725481052e-14 19.040638168162047,7.460698725481052e-14 C29.556493210737813,7.460698725481052e-14 38.08127633632411,8.366962136645558 38.08127633632411,18.68813508374412 C38.08127633632411,29.009308030842686 29.556493210737813,37.37627016748816 19.040638168162047,37.37627016748816 C8.52478312558631,37.37627016748816 0,29.009308030842686 0,18.68813508374412 Z "></path></g></svg>